<svg xmlns="http://www.w3.org/2000/svg" viewBox="0 0 64 80" x="0px" y="0px"><g><path d="M61.594,24.217l.01-.014L55,19.193V10a1,1,0,0,0-1-1H41.566L33.817,3.125a3,3,0,0,0-3.631,0L22.434,9H10a1,1,0,0,0-1,1v9.193L2.4,24.2l.01.014A.979.979,0,0,0,2,25V61a1,1,0,0,0,1,1H61a1,1,0,0,0,1-1V25A.979.979,0,0,0,61.594,24.217ZM55,21.7l4.39,3.33L55,28.665ZM31.4,4.714a.986.986,0,0,1,1.209,0L38.256,9H25.744ZM11,11H53V30.32L39.25,41.7l-5.328-4.408a2.985,2.985,0,0,0-3.839,0L24.75,41.7,11,30.32ZM4.61,25.034,9,21.7v6.961ZM4,27.125,23.181,43,4,58.874ZM5.777,60,31.363,38.826a.992.992,0,0,1,1.279.005L58.223,60ZM60,58.874,40.819,43,60,27.125Z"/><path d="M32,33h5a1,1,0,0,0,0-2H32a7,7,0,0,1,0-14h2a5.006,5.006,0,0,1,5,5v4a1,1,0,0,1-2,0V22a3,3,0,0,0-3-3H32a5,5,0,1,0,3.466,8.59A2.994,2.994,0,0,0,41,26V22a7.008,7.008,0,0,0-7-7H32a9,9,0,0,0,0,18Zm0-6a3,3,0,0,1,0-6h2a1,1,0,0,1,1,1v2A3,3,0,0,1,32,27Z"/></g><text x="0" y="79" fill="#000000" font-size="5px" font-weight="bold" font-family="'Helvetica Neue', Helvetica, Arial-Unicode, Arial, Sans-serif">Created by sripfoto</text><text x="0" y="84" fill="#000000" font-size="5px" font-weight="bold" font-family="'Helvetica Neue', Helvetica, Arial-Unicode, Arial, Sans-serif">from the Noun Project</text></svg>